<svg xmlns="http://www.w3.org/2000/svg" viewBox="0 0 390.25 390.27">
  <path d="m195.14,0C87.65,0,0,87.65,0,195.14s87.65,195.14,195.14,195.14,195.11-87.65,195.11-195.14S302.6,0,195.14,0Zm0,367.77c-95.1,0-172.63-77.56-172.63-172.63S100.03,22.51,195.14,22.51s172.6,77.56,172.6,172.63-77.53,172.63-172.6,172.63Z"/>
  <path d="m144.2,253.22c6.46,0,11.68,5.24,11.68,11.71s-5.22,11.71-11.68,11.71c-4.65,0-8.82,1.84-11.85,4.88-3,3.03-4.88,7.2-4.88,11.85s1.87,8.79,4.88,11.82c3.03,3,7.2,4.88,11.85,4.88s8.79-1.87,11.82-4.88c3-3.03,4.88-7.23,4.88-11.82v-64.52c0-9.47,3.86-18.03,10.03-24.21,6.21-6.21,14.74-10.03,24.21-10.03h0v.06c9.47,0,18.03,3.8,24.18,9.98,6.21,6.18,10.03,14.74,10.03,24.18v.03h-.06v64.52h.06c0,4.59,1.87,8.79,4.88,11.82,3.03,3,7.2,4.88,11.82,4.88s8.82-1.87,11.85-4.88c3-3.03,4.88-7.23,4.88-11.82s-1.87-8.82-4.88-11.85c-3.03-3.03-7.23-4.88-11.85-4.88-6.46,0-11.68-5.24-11.68-11.71s5.22-11.71,11.68-11.71c11.08,0,21.12,4.48,28.4,11.74,7.26,7.28,11.74,17.32,11.74,28.4s-4.48,21.09-11.74,28.35-17.32,11.79-28.4,11.79-21.09-4.51-28.37-11.79-11.76-17.29-11.76-28.35h.06v-64.52h-.06v-.03c0-2.98-1.19-5.67-3.15-7.63s-4.68-3.2-7.63-3.2v.03h0c-3,0-5.7,1.22-7.65,3.17s-3.15,4.65-3.15,7.65v64.52c0,11.06-4.51,21.09-11.79,28.35-7.23,7.28-17.26,11.79-28.35,11.79s-21.12-4.51-28.4-11.79c-7.23-7.26-11.74-17.29-11.74-28.35s4.51-21.12,11.74-28.4c7.29-7.26,17.32-11.74,28.4-11.74h0Z"/>
  <path d="m285.34,194.17c-6.43,0-11.68-5.24-11.68-11.71s5.24-11.71,11.68-11.71c11.08,0,21.12,4.48,28.4,11.74,7.26,7.29,11.74,17.32,11.74,28.4s-4.48,21.12-11.74,28.35c-7.28,7.29-17.32,11.76-28.4,11.76s-21.12-4.48-28.35-11.76c-7.28-7.23-11.76-17.26-11.76-28.35v-81.07c0-15.59-5.33-27.38-13.46-35.46-9.5-9.44-23.02-14.14-36.62-14.14s-27.18,4.71-36.65,14.14c-8.16,8.08-13.46,19.87-13.46,35.46v81.07c0,11.08-4.48,21.12-11.76,28.35-7.26,7.29-17.29,11.76-28.37,11.76s-21.12-4.48-28.37-11.76c-7.26-7.23-11.74-17.26-11.74-28.35s4.48-21.12,11.74-28.4c7.26-7.26,17.29-11.74,28.37-11.74,6.46,0,11.71,5.24,11.71,11.71s-5.24,11.71-11.71,11.71c-4.62,0-8.79,1.87-11.79,4.9-3.03,3-4.93,7.17-4.93,11.82s1.9,8.79,4.93,11.79c3,3.03,7.17,4.9,11.79,4.9s8.82-1.87,11.82-4.9c3.03-3,4.9-7.2,4.9-11.79v-81.07c0-22.39,8.05-39.77,20.41-52.02,14.12-14.03,33.65-21,53.12-21s38.98,6.97,53.09,21c12.36,12.25,20.41,29.62,20.41,52.02v81.07c0,4.59,1.87,8.79,4.9,11.79,3,3.03,7.2,4.9,11.79,4.9s8.82-1.87,11.85-4.9c3-3,4.88-7.2,4.88-11.79s-1.87-8.82-4.88-11.82c-3.03-3.03-7.2-4.9-11.85-4.9h0Z"/>
  <path d="m170.42,148.65c6.46,0,11.71,5.22,11.71,11.71s-5.24,11.68-11.71,11.68-11.71-5.22-11.71-11.68,5.24-11.71,11.71-11.71h0Z"/>
  <path d="m219.83,148.65c6.46,0,11.71,5.22,11.71,11.71s-5.24,11.68-11.71,11.68-11.71-5.22-11.71-11.68,5.24-11.71,11.71-11.71h0Z"/>
</svg>
