<?xml version="1.0" encoding="utf-8"?>
<!-- Generator: Adobe Illustrator 27.4.0, SVG Export Plug-In . SVG Version: 6.00 Build 0)  -->
<svg version="1.1" id="Layer_1" xmlns="http://www.w3.org/2000/svg" xmlns:xlink="http://www.w3.org/1999/xlink" x="0px" y="0px"
	 viewBox="0 0 19 19" style="enable-background:new 0 0 19 19;" xml:space="preserve">
<style type="text/css">
	.st0{fill:none;stroke:#000000;stroke-miterlimit:10;}
</style>
<path d="M9.5,1C14.2,1,18,4.8,18,9.5S14.2,18,9.5,18S1,14.2,1,9.5S4.8,1,9.5,1 M9.5,0C4.3,0,0,4.3,0,9.5S4.3,19,9.5,19
	S19,14.7,19,9.5S14.7,0,9.5,0L9.5,0z"/>
<path d="M14,12c-1.1,0-2-0.9-2-2V6.5C12,5.1,10.9,4,9.5,4S7,5.1,7,6.5V10c0,1.1-0.9,2-2,2s-2-0.9-2-2s0.9-2,2-2
	c0.3,0,0.5,0.2,0.5,0.5S5.3,9,5,9c-0.6,0-1,0.4-1,1s0.4,1,1,1s1-0.4,1-1V6.5C6,4.6,7.6,3,9.5,3S13,4.6,13,6.5V10c0,0.6,0.4,1,1,1
	s1-0.4,1-1s-0.4-1-1-1c-0.3,0-0.5-0.2-0.5-0.5S13.7,8,14,8c1.1,0,2,0.9,2,2S15.1,12,14,12z"/>
<path class="st0" d="M5,8.5"/>
<g>
	<path d="M8.5,8C8.2,8,8,7.8,8,7.5v-1C8,6.2,8.2,6,8.5,6S9,6.2,9,6.5v1C9,7.8,8.8,8,8.5,8z"/>
</g>
<g>
	<path d="M10.5,8C10.2,8,10,7.8,10,7.5v-1C10,6.2,10.2,6,10.5,6S11,6.2,11,6.5v1C11,7.8,10.8,8,10.5,8z"/>
</g>
<path d="M11.5,16c-0.8,0-1.5-0.7-1.5-1.5v-3c0-0.3-0.2-0.5-0.5-0.5S9,11.2,9,11.5v3C9,15.3,8.3,16,7.5,16S6,15.3,6,14.5
	c0-0.5,0.3-1,0.7-1.3c0.2-0.1,0.5-0.1,0.7,0.2c0.1,0.2,0.1,0.5-0.2,0.7C7.1,14.1,7,14.3,7,14.5C7,14.8,7.2,15,7.5,15S8,14.8,8,14.5
	v-3C8,10.7,8.7,10,9.5,10s1.5,0.7,1.5,1.5v3c0,0.3,0.2,0.5,0.5,0.5s0.5-0.2,0.5-0.5c0-0.2-0.1-0.3-0.3-0.4c-0.2-0.1-0.3-0.4-0.2-0.7
	c0.1-0.2,0.4-0.3,0.7-0.2c0.5,0.3,0.8,0.8,0.8,1.3C13,15.3,12.3,16,11.5,16z"/>
</svg>
